<mxfile host="app.diagrams.net" modified="2024-05-23T09:30:36.829Z" agent="Mozilla/5.0 (Windows NT 10.0; Win64; x64) AppleWebKit/537.36 (KHTML, like Gecko) Chrome/125.0.0.0 Safari/537.36 Edg/125.0.0.0" etag="QcbsDEI-T9t8ZVS7jVa3" version="24.4.6" type="device">
  <diagram name="Page-1" id="_weKOS1xwR8NmycWN-Tf">
    <mxGraphModel dx="2469" dy="1270" grid="0" gridSize="10" guides="1" tooltips="1" connect="1" arrows="1" fold="1" page="0" pageScale="1" pageWidth="850" pageHeight="1100" math="0" shadow="0">
      <root>
        <mxCell id="0" />
        <mxCell id="1" parent="0" />
        <mxCell id="i3CaKz1yb8DhiFogt1Zu-1" value="organizarea de conferințe științifice" style="shape=umlFrame;whiteSpace=wrap;html=1;pointerEvents=0;width=201;height=40;fontStyle=1;fontSize=15;" vertex="1" parent="1">
          <mxGeometry x="137.92" y="-40" width="742.08" height="754" as="geometry" />
        </mxCell>
        <mxCell id="i3CaKz1yb8DhiFogt1Zu-2" value="Actor" style="shape=umlActor;verticalLabelPosition=bottom;verticalAlign=top;html=1;fillColor=#d5e8d4;strokeColor=#82b366;fontSize=15;fontStyle=1" vertex="1" parent="1">
          <mxGeometry x="-69.08" y="85.92" width="80" height="110" as="geometry" />
        </mxCell>
        <mxCell id="i3CaKz1yb8DhiFogt1Zu-3" style="edgeStyle=orthogonalEdgeStyle;rounded=0;orthogonalLoop=1;jettySize=auto;html=1;exitX=0.5;exitY=0;exitDx=0;exitDy=0;exitPerimeter=0;endArrow=block;endFill=0;endSize=16;targetPerimeterSpacing=20;" edge="1" parent="1" source="i3CaKz1yb8DhiFogt1Zu-4" target="i3CaKz1yb8DhiFogt1Zu-2">
          <mxGeometry relative="1" as="geometry" />
        </mxCell>
        <mxCell id="i3CaKz1yb8DhiFogt1Zu-4" value="Utilizator" style="shape=umlActor;verticalLabelPosition=bottom;verticalAlign=top;html=1;fillColor=#dae8fc;strokeColor=#6c8ebf;fontSize=15;fontStyle=1" vertex="1" parent="1">
          <mxGeometry x="-69.08" y="405.92" width="80" height="110" as="geometry" />
        </mxCell>
        <mxCell id="i3CaKz1yb8DhiFogt1Zu-5" value="Organizator" style="shape=umlActor;verticalLabelPosition=bottom;verticalAlign=top;html=1;fillColor=#ffe6cc;strokeColor=#d79b00;fontSize=15;fontStyle=1;strokeWidth=1;shadow=0;textShadow=0;" vertex="1" parent="1">
          <mxGeometry x="900.92" y="88.21000000000001" width="80" height="110" as="geometry" />
        </mxCell>
        <mxCell id="i3CaKz1yb8DhiFogt1Zu-6" value="Administrator" style="shape=umlActor;verticalLabelPosition=bottom;verticalAlign=top;html=1;fillColor=#f8cecc;strokeColor=#b85450;fontSize=15;fontStyle=1" vertex="1" parent="1">
          <mxGeometry x="900.92" y="515.9200000000001" width="80" height="110" as="geometry" />
        </mxCell>
        <mxCell id="i3CaKz1yb8DhiFogt1Zu-7" style="edgeStyle=orthogonalEdgeStyle;rounded=0;orthogonalLoop=1;jettySize=auto;html=1;exitX=0.5;exitY=0;exitDx=0;exitDy=0;exitPerimeter=0;entryX=0.5;entryY=0;entryDx=0;entryDy=0;entryPerimeter=0;strokeColor=default;align=center;verticalAlign=middle;fontFamily=Helvetica;fontSize=11;fontColor=default;labelBackgroundColor=default;endArrow=block;endFill=0;endSize=16;targetPerimeterSpacing=20;" edge="1" parent="1" target="i3CaKz1yb8DhiFogt1Zu-2">
          <mxGeometry relative="1" as="geometry">
            <mxPoint x="940.9200000000001" y="85.92000000000007" as="sourcePoint" />
            <mxPoint x="-29.08" y="75.92" as="targetPoint" />
            <Array as="points">
              <mxPoint x="941" y="-80" />
              <mxPoint x="-29" y="-80" />
            </Array>
          </mxGeometry>
        </mxCell>
        <mxCell id="i3CaKz1yb8DhiFogt1Zu-8" style="edgeStyle=orthogonalEdgeStyle;rounded=0;orthogonalLoop=1;jettySize=auto;html=1;strokeColor=default;align=center;verticalAlign=middle;fontFamily=Helvetica;fontSize=11;fontColor=default;labelBackgroundColor=default;endArrow=block;endFill=0;endSize=16;targetPerimeterSpacing=20;entryX=0.25;entryY=0.1;entryDx=0;entryDy=0;entryPerimeter=0;" edge="1" parent="1" source="i3CaKz1yb8DhiFogt1Zu-6" target="i3CaKz1yb8DhiFogt1Zu-2">
          <mxGeometry relative="1" as="geometry">
            <mxPoint x="-79.08" y="53.92" as="targetPoint" />
            <Array as="points">
              <mxPoint x="1052" y="571" />
              <mxPoint x="1052" y="-101" />
              <mxPoint x="-79" y="-101" />
              <mxPoint x="-79" y="97" />
            </Array>
          </mxGeometry>
        </mxCell>
        <mxCell id="i3CaKz1yb8DhiFogt1Zu-9" value="Înscriere la conferință;&lt;div style=&quot;font-size: 15px;&quot;&gt;&lt;br style=&quot;font-size: 15px;&quot;&gt;&lt;/div&gt;" style="ellipse;html=1;verticalAlign=middle;fontFamily=Times New Roman;whiteSpace=wrap;fillColor=#d5e8d4;strokeColor=#82b366;fontSize=15;" vertex="1" parent="1">
          <mxGeometry x="212.42999999999998" y="175.9242857142857" width="130" height="70" as="geometry" />
        </mxCell>
        <mxCell id="i3CaKz1yb8DhiFogt1Zu-10" value="Vizualizare program conferințe" style="ellipse;html=1;verticalAlign=middle;fontFamily=Times New Roman;whiteSpace=wrap;fillColor=#d5e8d4;strokeColor=#82b366;fontSize=15;" vertex="1" parent="1">
          <mxGeometry x="212.42943396226414" y="88.20714285714287" width="130" height="70" as="geometry" />
        </mxCell>
        <mxCell id="i3CaKz1yb8DhiFogt1Zu-11" style="edgeStyle=none;rounded=0;orthogonalLoop=1;jettySize=auto;html=1;strokeColor=default;align=center;verticalAlign=middle;fontFamily=Helvetica;fontSize=11;fontColor=default;labelBackgroundColor=default;startArrow=classic;startFill=1;endArrow=none;endFill=0;targetPerimeterSpacing=5;" edge="1" parent="1" source="i3CaKz1yb8DhiFogt1Zu-18" target="i3CaKz1yb8DhiFogt1Zu-5">
          <mxGeometry relative="1" as="geometry" />
        </mxCell>
        <mxCell id="i3CaKz1yb8DhiFogt1Zu-12" style="edgeStyle=orthogonalEdgeStyle;rounded=0;orthogonalLoop=1;jettySize=auto;html=1;dashed=1;dashPattern=12 12;strokeColor=default;align=center;verticalAlign=middle;fontFamily=Times New Roman;fontSize=15;fontColor=default;labelBackgroundColor=default;startArrow=classic;startFill=1;startSize=10;endArrow=none;endFill=0;endSize=10;entryX=0;entryY=0.5;entryDx=0;entryDy=0;" edge="1" parent="1" source="i3CaKz1yb8DhiFogt1Zu-18" target="i3CaKz1yb8DhiFogt1Zu-26">
          <mxGeometry relative="1" as="geometry">
            <Array as="points">
              <mxPoint x="430" y="80" />
              <mxPoint x="461" y="80" />
            </Array>
          </mxGeometry>
        </mxCell>
        <mxCell id="i3CaKz1yb8DhiFogt1Zu-13" style="edgeStyle=none;rounded=0;orthogonalLoop=1;jettySize=auto;html=1;dashed=1;dashPattern=12 12;strokeColor=default;align=center;verticalAlign=middle;fontFamily=Times New Roman;fontSize=15;fontColor=default;labelBackgroundColor=default;startArrow=classic;startFill=1;startSize=10;endArrow=none;endFill=0;endSize=10;entryX=0.021;entryY=0.652;entryDx=0;entryDy=0;entryPerimeter=0;" edge="1" parent="1" target="i3CaKz1yb8DhiFogt1Zu-40">
          <mxGeometry relative="1" as="geometry">
            <mxPoint x="440" y="320" as="sourcePoint" />
            <mxPoint x="470" y="180" as="targetPoint" />
            <Array as="points">
              <mxPoint x="460" y="190" />
            </Array>
          </mxGeometry>
        </mxCell>
        <mxCell id="i3CaKz1yb8DhiFogt1Zu-14" style="edgeStyle=none;rounded=0;orthogonalLoop=1;jettySize=auto;html=1;dashed=1;dashPattern=12 12;strokeColor=default;align=center;verticalAlign=middle;fontFamily=Times New Roman;fontSize=15;fontColor=default;labelBackgroundColor=default;startArrow=classic;startFill=1;startSize=10;endArrow=none;endFill=0;endSize=10;" edge="1" parent="1" source="i3CaKz1yb8DhiFogt1Zu-18" target="i3CaKz1yb8DhiFogt1Zu-42">
          <mxGeometry relative="1" as="geometry" />
        </mxCell>
        <mxCell id="i3CaKz1yb8DhiFogt1Zu-15" style="edgeStyle=none;rounded=0;orthogonalLoop=1;jettySize=auto;html=1;dashed=1;dashPattern=12 12;strokeColor=default;align=center;verticalAlign=middle;fontFamily=Times New Roman;fontSize=15;fontColor=default;labelBackgroundColor=default;startArrow=classic;startFill=1;startSize=10;endArrow=none;endFill=0;endSize=10;exitX=0.194;exitY=0.069;exitDx=0;exitDy=0;exitPerimeter=0;" edge="1" parent="1" source="i3CaKz1yb8DhiFogt1Zu-18" target="i3CaKz1yb8DhiFogt1Zu-24">
          <mxGeometry relative="1" as="geometry">
            <Array as="points">
              <mxPoint x="407" y="190" />
              <mxPoint x="410" y="40" />
            </Array>
          </mxGeometry>
        </mxCell>
        <mxCell id="i3CaKz1yb8DhiFogt1Zu-16" style="edgeStyle=none;rounded=0;orthogonalLoop=1;jettySize=auto;html=1;dashed=1;dashPattern=12 12;strokeColor=default;align=center;verticalAlign=middle;fontFamily=Times New Roman;fontSize=15;fontColor=default;labelBackgroundColor=default;startArrow=classic;startFill=1;startSize=10;endArrow=none;endFill=0;endSize=10;exitX=0.088;exitY=0.219;exitDx=0;exitDy=0;exitPerimeter=0;entryX=0.077;entryY=0.143;entryDx=0;entryDy=0;entryPerimeter=0;" edge="1" parent="1" source="i3CaKz1yb8DhiFogt1Zu-18" target="i3CaKz1yb8DhiFogt1Zu-22">
          <mxGeometry relative="1" as="geometry">
            <Array as="points">
              <mxPoint x="389" y="-20" />
            </Array>
          </mxGeometry>
        </mxCell>
        <mxCell id="i3CaKz1yb8DhiFogt1Zu-17" style="edgeStyle=none;rounded=0;orthogonalLoop=1;jettySize=auto;html=1;dashed=1;dashPattern=12 12;strokeColor=default;align=center;verticalAlign=middle;fontFamily=Times New Roman;fontSize=15;fontColor=default;labelBackgroundColor=default;startArrow=classic;startFill=1;startSize=10;endArrow=none;endFill=0;endSize=10;" edge="1" parent="1" source="i3CaKz1yb8DhiFogt1Zu-18" target="i3CaKz1yb8DhiFogt1Zu-44">
          <mxGeometry relative="1" as="geometry" />
        </mxCell>
        <mxCell id="i3CaKz1yb8DhiFogt1Zu-18" value="LOGIN" style="ellipse;html=1;verticalAlign=middle;fontFamily=Times New Roman;whiteSpace=wrap;fillColor=#d0cee2;strokeColor=#56517e;fontSize=15;fontStyle=1" vertex="1" parent="1">
          <mxGeometry x="385.0709433962264" y="322.9157142857142" width="150" height="80" as="geometry" />
        </mxCell>
        <mxCell id="i3CaKz1yb8DhiFogt1Zu-19" style="edgeStyle=none;rounded=0;orthogonalLoop=1;jettySize=auto;html=1;dashed=1;dashPattern=12 12;strokeColor=default;align=center;verticalAlign=middle;fontFamily=Times New Roman;fontSize=15;fontColor=default;labelBackgroundColor=default;startArrow=classic;startFill=1;startSize=10;endArrow=none;endFill=0;endSize=10;" edge="1" parent="1" source="i3CaKz1yb8DhiFogt1Zu-20" target="i3CaKz1yb8DhiFogt1Zu-18">
          <mxGeometry relative="1" as="geometry" />
        </mxCell>
        <mxCell id="i3CaKz1yb8DhiFogt1Zu-20" value="Accesare volum conferința" style="ellipse;html=1;verticalAlign=middle;fontFamily=Times New Roman;whiteSpace=wrap;fillColor=#dae8fc;strokeColor=#6c8ebf;fontSize=15;" vertex="1" parent="1">
          <mxGeometry x="212.42943396226414" y="520.2071428571428" width="130" height="70" as="geometry" />
        </mxCell>
        <mxCell id="i3CaKz1yb8DhiFogt1Zu-21" style="edgeStyle=none;rounded=0;orthogonalLoop=1;jettySize=auto;html=1;strokeColor=default;align=center;verticalAlign=middle;fontFamily=Helvetica;fontSize=11;fontColor=default;labelBackgroundColor=default;startArrow=classic;startFill=1;endArrow=none;endFill=0;targetPerimeterSpacing=5;" edge="1" parent="1" source="i3CaKz1yb8DhiFogt1Zu-22" target="i3CaKz1yb8DhiFogt1Zu-5">
          <mxGeometry relative="1" as="geometry" />
        </mxCell>
        <mxCell id="i3CaKz1yb8DhiFogt1Zu-22" value="Management&lt;br style=&quot;font-size: 15px;&quot;&gt;Participanti" style="ellipse;html=1;verticalAlign=middle;fontFamily=Times New Roman;whiteSpace=wrap;fillColor=#ffe6cc;strokeColor=#d79b00;fontSize=15;" vertex="1" parent="1">
          <mxGeometry x="729.9962264150943" y="-29.994285714285724" width="130" height="70" as="geometry" />
        </mxCell>
        <mxCell id="i3CaKz1yb8DhiFogt1Zu-23" style="edgeStyle=none;rounded=0;orthogonalLoop=1;jettySize=auto;html=1;strokeColor=default;align=center;verticalAlign=middle;fontFamily=Helvetica;fontSize=11;fontColor=default;labelBackgroundColor=default;startArrow=classic;startFill=1;endArrow=none;endFill=0;targetPerimeterSpacing=5;" edge="1" parent="1" source="i3CaKz1yb8DhiFogt1Zu-24" target="i3CaKz1yb8DhiFogt1Zu-5">
          <mxGeometry relative="1" as="geometry" />
        </mxCell>
        <mxCell id="i3CaKz1yb8DhiFogt1Zu-24" value="Management&lt;br style=&quot;font-size: 15px;&quot;&gt;Lucrari prezentate" style="ellipse;html=1;verticalAlign=middle;fontFamily=Times New Roman;whiteSpace=wrap;fillColor=#ffe6cc;strokeColor=#d79b00;fontSize=15;" vertex="1" parent="1">
          <mxGeometry x="599.9962264150944" y="0.0014285714285904305" width="130" height="70" as="geometry" />
        </mxCell>
        <mxCell id="i3CaKz1yb8DhiFogt1Zu-25" style="edgeStyle=none;rounded=0;orthogonalLoop=1;jettySize=auto;html=1;strokeColor=default;align=center;verticalAlign=middle;fontFamily=Helvetica;fontSize=11;fontColor=default;labelBackgroundColor=default;startArrow=classic;startFill=1;endArrow=none;endFill=0;targetPerimeterSpacing=5;" edge="1" parent="1" source="i3CaKz1yb8DhiFogt1Zu-26" target="i3CaKz1yb8DhiFogt1Zu-5">
          <mxGeometry relative="1" as="geometry" />
        </mxCell>
        <mxCell id="i3CaKz1yb8DhiFogt1Zu-26" value="Cautare participanti dupa sectiune" style="ellipse;html=1;verticalAlign=middle;fontFamily=Times New Roman;whiteSpace=wrap;fillColor=#ffe6cc;strokeColor=#d79b00;fontSize=15;" vertex="1" parent="1">
          <mxGeometry x="460.91622641509434" y="50.000000000000014" width="130" height="70" as="geometry" />
        </mxCell>
        <mxCell id="i3CaKz1yb8DhiFogt1Zu-27" style="edgeStyle=none;rounded=0;orthogonalLoop=1;jettySize=auto;html=1;exitX=0.5;exitY=0;exitDx=0;exitDy=0;dashed=1;dashPattern=12 12;fontFamily=Times New Roman;fontSize=15;strokeColor=default;align=center;verticalAlign=middle;fontColor=default;labelBackgroundColor=default;startArrow=classic;startFill=1;endArrow=none;endFill=0;endSize=10;startSize=10;" edge="1" parent="1" source="i3CaKz1yb8DhiFogt1Zu-28">
          <mxGeometry relative="1" as="geometry">
            <mxPoint x="517.9200000000001" y="388.9200000000001" as="targetPoint" />
          </mxGeometry>
        </mxCell>
        <mxCell id="i3CaKz1yb8DhiFogt1Zu-28" value="&lt;font style=&quot;font-size: 15px;&quot;&gt;Management&lt;br style=&quot;font-size: 15px;&quot;&gt;&lt;/font&gt;Utilizatori" style="ellipse;html=1;verticalAlign=middle;fontFamily=Times New Roman;whiteSpace=wrap;fillColor=#f8cecc;strokeColor=#b85450;fontSize=15;" vertex="1" parent="1">
          <mxGeometry x="560.9230188679245" y="520.2057142857143" width="130" height="70" as="geometry" />
        </mxCell>
        <mxCell id="i3CaKz1yb8DhiFogt1Zu-29" style="edgeStyle=none;rounded=0;orthogonalLoop=1;jettySize=auto;html=1;exitX=0;exitY=0;exitDx=0;exitDy=0;entryX=0.5;entryY=1;entryDx=0;entryDy=0;dashed=1;dashPattern=12 12;strokeColor=default;align=center;verticalAlign=middle;fontFamily=Times New Roman;fontSize=15;fontColor=default;labelBackgroundColor=default;endArrow=none;startArrow=classic;startFill=1;endFill=0;startSize=10;endSize=10;" edge="1" parent="1" source="i3CaKz1yb8DhiFogt1Zu-30" target="i3CaKz1yb8DhiFogt1Zu-18">
          <mxGeometry relative="1" as="geometry" />
        </mxCell>
        <mxCell id="i3CaKz1yb8DhiFogt1Zu-30" value="Vizualizare&lt;br style=&quot;font-size: 15px;&quot;&gt;Utilizatori" style="ellipse;html=1;verticalAlign=middle;fontFamily=Times New Roman;whiteSpace=wrap;fillColor=#f8cecc;strokeColor=#b85450;fontSize=15;" vertex="1" parent="1">
          <mxGeometry x="560.9230188679245" y="623.0628571428571" width="130" height="70" as="geometry" />
        </mxCell>
        <mxCell id="i3CaKz1yb8DhiFogt1Zu-31" style="edgeStyle=none;rounded=0;orthogonalLoop=1;jettySize=auto;html=1;exitX=0.5;exitY=0;exitDx=0;exitDy=0;fontFamily=Times New Roman;fontSize=15;verticalAlign=middle;" edge="1" parent="1" source="i3CaKz1yb8DhiFogt1Zu-26" target="i3CaKz1yb8DhiFogt1Zu-26">
          <mxGeometry relative="1" as="geometry" />
        </mxCell>
        <mxCell id="i3CaKz1yb8DhiFogt1Zu-32" style="edgeStyle=none;rounded=0;orthogonalLoop=1;jettySize=auto;html=1;entryX=1;entryY=0.5;entryDx=0;entryDy=0;strokeColor=default;align=center;verticalAlign=middle;fontFamily=Times New Roman;fontSize=15;fontColor=default;labelBackgroundColor=default;endArrow=classic;endSize=10;" edge="1" parent="1" target="i3CaKz1yb8DhiFogt1Zu-30">
          <mxGeometry relative="1" as="geometry">
            <mxPoint x="900.9200000000001" y="584.8630255114667" as="sourcePoint" />
          </mxGeometry>
        </mxCell>
        <mxCell id="i3CaKz1yb8DhiFogt1Zu-33" style="edgeStyle=none;rounded=0;orthogonalLoop=1;jettySize=auto;html=1;strokeColor=default;align=center;verticalAlign=middle;fontFamily=Times New Roman;fontSize=15;fontColor=default;labelBackgroundColor=default;endArrow=classic;endSize=10;" edge="1" parent="1" target="i3CaKz1yb8DhiFogt1Zu-28">
          <mxGeometry relative="1" as="geometry">
            <mxPoint x="900.9200000000001" y="568.9049875239011" as="sourcePoint" />
          </mxGeometry>
        </mxCell>
        <mxCell id="i3CaKz1yb8DhiFogt1Zu-34" style="edgeStyle=none;rounded=0;orthogonalLoop=1;jettySize=auto;html=1;entryX=1;entryY=0.5;entryDx=0;entryDy=0;strokeColor=default;align=center;verticalAlign=middle;fontFamily=Times New Roman;fontSize=15;fontColor=default;labelBackgroundColor=default;endArrow=classic;endSize=10;" edge="1" parent="1" target="i3CaKz1yb8DhiFogt1Zu-18">
          <mxGeometry relative="1" as="geometry">
            <mxPoint x="900.9200000000001" y="550.4193451550775" as="sourcePoint" />
            <Array as="points">
              <mxPoint x="670" y="490" />
            </Array>
          </mxGeometry>
        </mxCell>
        <mxCell id="i3CaKz1yb8DhiFogt1Zu-35" style="edgeStyle=none;rounded=0;orthogonalLoop=1;jettySize=auto;html=1;entryX=0;entryY=0.5;entryDx=0;entryDy=0;strokeColor=default;align=center;verticalAlign=middle;fontFamily=Times New Roman;fontSize=15;fontColor=default;labelBackgroundColor=default;endArrow=classic;endSize=10;" edge="1" parent="1" target="i3CaKz1yb8DhiFogt1Zu-20">
          <mxGeometry relative="1" as="geometry">
            <mxPoint x="10.920000000000073" y="476.5363080357149" as="sourcePoint" />
          </mxGeometry>
        </mxCell>
        <mxCell id="i3CaKz1yb8DhiFogt1Zu-36" style="edgeStyle=none;rounded=0;orthogonalLoop=1;jettySize=auto;html=1;entryX=0;entryY=0.5;entryDx=0;entryDy=0;strokeColor=default;align=center;verticalAlign=middle;fontFamily=Times New Roman;fontSize=15;fontColor=default;labelBackgroundColor=default;endArrow=classic;endSize=10;" edge="1" parent="1" target="i3CaKz1yb8DhiFogt1Zu-18">
          <mxGeometry relative="1" as="geometry">
            <mxPoint x="10.920000000000073" y="451.4544380084608" as="sourcePoint" />
          </mxGeometry>
        </mxCell>
        <mxCell id="i3CaKz1yb8DhiFogt1Zu-37" style="edgeStyle=none;rounded=0;orthogonalLoop=1;jettySize=auto;html=1;entryX=0;entryY=0.5;entryDx=0;entryDy=0;strokeColor=default;align=center;verticalAlign=middle;fontFamily=Times New Roman;fontSize=15;fontColor=default;labelBackgroundColor=default;endArrow=classic;endSize=10;" edge="1" parent="1" target="i3CaKz1yb8DhiFogt1Zu-10">
          <mxGeometry relative="1" as="geometry">
            <mxPoint x="10.920000000000073" y="137.98630803571427" as="sourcePoint" />
          </mxGeometry>
        </mxCell>
        <mxCell id="i3CaKz1yb8DhiFogt1Zu-38" style="edgeStyle=none;rounded=0;orthogonalLoop=1;jettySize=auto;html=1;entryX=0;entryY=0.5;entryDx=0;entryDy=0;strokeColor=default;align=center;verticalAlign=middle;fontFamily=Times New Roman;fontSize=15;fontColor=default;labelBackgroundColor=default;endArrow=classic;endSize=10;" edge="1" parent="1" target="i3CaKz1yb8DhiFogt1Zu-9">
          <mxGeometry relative="1" as="geometry">
            <mxPoint x="10.920000000000073" y="152.51443264697764" as="sourcePoint" />
          </mxGeometry>
        </mxCell>
        <mxCell id="i3CaKz1yb8DhiFogt1Zu-39" style="edgeStyle=none;rounded=0;orthogonalLoop=1;jettySize=auto;html=1;strokeColor=default;align=center;verticalAlign=middle;fontFamily=Helvetica;fontSize=11;fontColor=default;labelBackgroundColor=default;startArrow=classic;startFill=1;endArrow=none;endFill=0;targetPerimeterSpacing=5;" edge="1" parent="1" source="i3CaKz1yb8DhiFogt1Zu-40" target="i3CaKz1yb8DhiFogt1Zu-5">
          <mxGeometry relative="1" as="geometry" />
        </mxCell>
        <mxCell id="i3CaKz1yb8DhiFogt1Zu-40" value="Cautare prezentare dupa sectiune" style="ellipse;html=1;verticalAlign=middle;fontFamily=Times New Roman;whiteSpace=wrap;fillColor=#ffe6cc;strokeColor=#d79b00;fontSize=15;" vertex="1" parent="1">
          <mxGeometry x="460.91622641509423" y="128.21" width="130" height="70" as="geometry" />
        </mxCell>
        <mxCell id="i3CaKz1yb8DhiFogt1Zu-41" style="edgeStyle=none;rounded=0;orthogonalLoop=1;jettySize=auto;html=1;strokeColor=default;align=center;verticalAlign=middle;fontFamily=Helvetica;fontSize=11;fontColor=default;labelBackgroundColor=default;startArrow=classic;startFill=1;endArrow=none;endFill=0;targetPerimeterSpacing=5;" edge="1" parent="1" source="i3CaKz1yb8DhiFogt1Zu-42" target="i3CaKz1yb8DhiFogt1Zu-5">
          <mxGeometry relative="1" as="geometry" />
        </mxCell>
        <mxCell id="i3CaKz1yb8DhiFogt1Zu-42" value="Exportul Prezentarilor în Formate Diverse" style="ellipse;html=1;verticalAlign=middle;fontFamily=Times New Roman;whiteSpace=wrap;fillColor=#ffe6cc;strokeColor=#d79b00;fontSize=15;" vertex="1" parent="1">
          <mxGeometry x="460.9162264150943" y="210" width="130" height="70" as="geometry" />
        </mxCell>
        <mxCell id="i3CaKz1yb8DhiFogt1Zu-43" style="edgeStyle=none;rounded=0;orthogonalLoop=1;jettySize=auto;html=1;strokeColor=default;align=center;verticalAlign=middle;fontFamily=Helvetica;fontSize=11;fontColor=default;labelBackgroundColor=default;startArrow=classic;startFill=1;endArrow=none;endFill=0;targetPerimeterSpacing=5;" edge="1" parent="1" source="i3CaKz1yb8DhiFogt1Zu-44" target="i3CaKz1yb8DhiFogt1Zu-5">
          <mxGeometry relative="1" as="geometry" />
        </mxCell>
        <mxCell id="i3CaKz1yb8DhiFogt1Zu-44" value="Acceptarea sau Respingerea Participantilor" style="ellipse;html=1;verticalAlign=middle;fontFamily=Times New Roman;whiteSpace=wrap;fillColor=#ffe6cc;strokeColor=#d79b00;fontSize=15;" vertex="1" parent="1">
          <mxGeometry x="699.9962264150944" y="322.9114285714286" width="130" height="70" as="geometry" />
        </mxCell>
        <mxCell id="i3CaKz1yb8DhiFogt1Zu-48" style="edgeStyle=orthogonalEdgeStyle;rounded=0;orthogonalLoop=1;jettySize=auto;html=1;dashed=1;dashPattern=12 12;strokeColor=default;align=center;verticalAlign=middle;fontFamily=Times New Roman;fontSize=15;fontColor=default;labelBackgroundColor=default;startArrow=none;startFill=0;startSize=10;endArrow=none;endFill=0;endSize=10;" edge="1" parent="1" source="i3CaKz1yb8DhiFogt1Zu-45" target="i3CaKz1yb8DhiFogt1Zu-18">
          <mxGeometry relative="1" as="geometry">
            <Array as="points">
              <mxPoint x="680" y="441" />
              <mxPoint x="680" y="360" />
            </Array>
          </mxGeometry>
        </mxCell>
        <mxCell id="i3CaKz1yb8DhiFogt1Zu-45" value="&lt;br&gt;Vizualizare statistici grafice&lt;div&gt;&lt;br/&gt;&lt;/div&gt;" style="ellipse;html=1;verticalAlign=middle;fontFamily=Times New Roman;whiteSpace=wrap;fillColor=#ffe6cc;strokeColor=#d79b00;fontSize=15;" vertex="1" parent="1">
          <mxGeometry x="699.9962264150945" y="405.92" width="130" height="70" as="geometry" />
        </mxCell>
        <mxCell id="i3CaKz1yb8DhiFogt1Zu-46" style="edgeStyle=none;rounded=0;orthogonalLoop=1;jettySize=auto;html=1;strokeColor=default;align=center;verticalAlign=middle;fontFamily=Helvetica;fontSize=11;fontColor=default;labelBackgroundColor=default;startArrow=classic;startFill=1;endArrow=none;endFill=0;targetPerimeterSpacing=5;exitX=0.919;exitY=0.237;exitDx=0;exitDy=0;exitPerimeter=0;" edge="1" parent="1" source="i3CaKz1yb8DhiFogt1Zu-45" target="i3CaKz1yb8DhiFogt1Zu-5">
          <mxGeometry relative="1" as="geometry">
            <mxPoint x="801" y="336" as="sourcePoint" />
            <mxPoint x="906" y="208" as="targetPoint" />
            <Array as="points" />
          </mxGeometry>
        </mxCell>
      </root>
    </mxGraphModel>
  </diagram>
</mxfile>
